.
 
http://www.scenetime.com    -   SceneTime [ We been having it ] !!!


How come you press harder on a remote control when you know the battery is dead? so you better seed to get speed ;)

        Seed back for speed


...................................NFO:.................................................[IMG]http://i184.photobucket.com/albums/x292/miff2001/COVER-1.png[/IMG]
-------------------------------------------------------------------------------------------
[IMG]http://i184.photobucket.com/albums/x292/miff2001/INFO.png[/IMG]
-------------------------------------------------------------------------------------------
General
Format                           : Matroska
File size                        : 374 MiB
Duration                         : 1h 27mn
Overall bit rate                 : 598 Kbps
Movie name                       : Avidemux
Writing application              : Lavf52.108.0
Writing library                  : Lavf52.108.0
AUTHOR                           : Avidemux

Video
ID                               : 1
Format                           : AVC
Format/Info                      : Advanced Video Codec
Format profile                   : High@L3.0
Format settings, CABAC           : Yes
Format settings, ReFrames        : 4 frames
Format settings, GOP             : M=4, N=29
Codec ID                         : V_MPEG4/ISO/AVC
Duration                         : 1h 27mn
Bit rate                         : 458 Kbps
Width                            : 720 pixels
Height                           : 320 pixels
Display aspect ratio             : 2.25:1
Frame rate mode                  : Variable
Frame rate                       : 25.000 fps
Color space                      : YUV
Chroma subsampling               : 4:2:0
Bit depth                        : 8 bits
Scan type                        : Progressive
Bits/(Pixel*Frame)               : 0.079
Stream size                      : 286 MiB (77%)
Writing library                  : x264 core 115 r1947 b5a8ad7
Language                         : English

Audio
ID                               : 2
Format                           : AC-3
Format/Info                      : Audio Coding 3
Mode extension                   : CM (complete main)
Codec ID                         : A_AC3
Duration                         : 1h 27mn
Bit rate mode                    : Constant
Bit rate                         : 128 Kbps
Channel(s)                       : 2 channels
Channel positions                : Front: L R
Sampling rate                    : 44.1 KHz
Bit depth                        : 16 bits
Compression mode                 : Lossy
Delay relative to video          : -40ms
Stream size                      : 80.1 MiB (21%)
Language                         : English 
http://www.imdb.com/title/tt1284575/

[IMG]http://i184.photobucket.com/albums/x292/miff2001/SCREEN-1.png[/IMG] 
http://i184.photobucket.com/albums/x292/miff2001/BadTeacher2011TS-djjohnnyb_PR3DATOR-RG_idx.jpg

[IMG]http://i184.photobucket.com/albums/x292/miff2001/greet.png[/IMG]

[IMG]http://lookpic.com/c1/i2/3765/t8sIOz7z.png[/IMG]  [IMG]http://lookpic.com/c1/i2/2254/OukJyZKz.png[/IMG]
[IMG]http://i184.photobucket.com/albums/x292/miff2001/sig-2.png[/IMG]